<?xml version="1.0" standalone="no"?>
<!DOCTYPE svg PUBLIC "-//W3C//DTD SVG 20010904//EN"
 "http://www.w3.org/TR/2001/REC-SVG-20010904/DTD/svg10.dtd">
<svg version="1.0" xmlns="http://www.w3.org/2000/svg"
 width="150.000000pt" height="145.000000pt" viewBox="0 0 150.000000 145.000000"
 preserveAspectRatio="xMidYMid meet">

<g transform="translate(0.000000,145.000000) scale(0.100000,-0.100000)"
fill="#000000" stroke="none">
<path d="M657 1139 c-10 -6 -31 -23 -45 -38 -19 -18 -35 -25 -54 -23 -52 6
-78 -73 -85 -255 -4 -99 -2 -116 17 -153 17 -33 32 -47 77 -66 30 -14 74 -30
98 -36 39 -10 44 -15 49 -47 3 -20 5 -67 5 -106 -1 -59 -2 -65 -10 -39 -5 17
-16 37 -24 44 -8 7 -15 18 -15 24 0 6 -30 39 -66 73 -87 81 -163 113 -272 113
l-77 0 30 -25 c17 -13 36 -24 42 -25 19 0 210 -178 307 -286 86 -94 86 -94 86
-149 0 -54 1 -55 29 -55 25 0 37 12 95 98 83 123 90 133 144 216 25 37 85 111
135 165 l91 96 -48 3 c-55 4 -133 -19 -191 -55 -22 -14 -75 -61 -117 -106
l-78 -80 0 65 0 65 60 37 c33 21 74 52 91 69 l30 32 -4 105 c-3 92 -8 113 -35
171 -18 36 -32 69 -32 73 0 5 -9 21 -21 37 -20 28 -61 40 -73 20 -3 -5 -20 4
-37 20 -32 30 -70 37 -102 18z m88 -34 c32 -31 31 -40 0 -40 -14 0 -25 3 -25
8 0 16 -40 6 -41 -10 -1 -17 -2 -17 -6 0 -6 24 -38 21 -50 -5 -5 -12 -12 -17
-16 -12 -3 6 9 27 28 47 40 44 75 48 110 12z m117 -55 c50 -101 78 -200 78
-273 0 -54 -4 -78 -15 -87 -13 -11 -15 -7 -15 26 -1 98 -43 207 -103 264 -31
29 -34 56 -11 88 21 31 45 24 66 -18z m-268 -13 l29 -23 -44 -42 -44 -41 -3
-125 c-3 -118 -2 -128 20 -158 l23 -33 -33 23 c-17 13 -32 32 -32 42 0 10 -4
22 -10 25 -15 10 -12 171 6 255 22 106 36 118 88 77z m66 9 c0 -17 -14 -29
-23 -20 -8 8 3 34 14 34 5 0 9 -6 9 -14z m54 -1 c4 -10 -1 -15 -14 -15 -13 0
-18 5 -14 15 4 8 10 15 14 15 4 0 10 -7 14 -15z m41 -5 c3 -5 1 -10 -4 -10 -6
0 -11 5 -11 10 0 6 2 10 4 10 3 0 8 -4 11 -10z m27 -67 c72 -81 93 -134 105
-265 l5 -57 -57 -37 c-52 -33 -63 -36 -114 -32 -73 5 -130 34 -153 78 -14 27
-18 57 -18 141 l0 106 40 46 c41 46 56 53 121 56 31 1 42 -5 71 -36z m336
-338 c-107 -29 -199 -99 -305 -230 -21 -26 -32 -34 -32 -24 -1 10 37 57 84
107 98 103 192 162 260 161 l40 -1 -47 -13z m32 -11 c0 -4 -20 -24 -44 -46
-56 -48 -165 -197 -320 -435 -41 -63 -46 -47 -46 155 0 103 -3 204 -6 225 -5
30 -4 37 10 37 18 0 19 -15 16 -239 -1 -85 2 -121 9 -116 6 3 11 35 11 69 0
53 4 67 23 87 13 13 38 46 56 72 41 61 117 121 206 163 70 34 85 39 85 28z
m-693 -37 c67 -24 170 -107 194 -155 7 -15 21 -36 30 -47 19 -22 39 -86 39
-124 0 -21 -20 -4 -122 100 -161 164 -239 235 -263 242 -11 2 -2 5 20 6 22 0
68 -10 102 -22z"/>
</g>
</svg>
