<svg width="252" height="188" viewBox="0 0 252 188" fill="none" xmlns="http://www.w3.org/2000/svg">
<path d="M181.5 158.5H161L154.5 163H132.5L125.5 158.5H81.5H73.5H61H27.5L22 154.5V137H27.5V123.5H22V110L27.5 104H45.5V74H39.5V61.5L45.5 56H78.5V52.5H103V61.5H125.5L121.5 56L114 33L132.5 14H154.5L172.5 33L165 56L161 61.5H196L205.5 68L210 77V89.5L205.5 96.5V115H231V137H225.5V163L215.5 173H199L189 163L181.5 158.5Z" fill="#645743"/>
<path d="M175.5 154.5H155L148.5 159H126.5L119.5 154.5H75.5H67.5H55H21.5L16 150.5V133H21.5V119.5H16V106L21.5 100H39.5V70H33.5V57.5L39.5 52H72.5V48.5H97V57.5H119.5L115.5 52L108 29L126.5 10H148.5L166.5 29L159 52L155 57.5H190L199.5 64L204 73V85.5L199.5 92.5V111H225V133H219.5V159L209.5 169H193L183 159L175.5 154.5Z" fill="#786951"/>
<path d="M75.1145 70.75L71.3145 70.95L71.0145 67L59.1145 67.2L59.3645 77.9L65.0145 77.7L64.9645 71.85H69.4145L69.8145 84.8L64.9645 85L64.7645 82.1L59.4145 82.3L59.3645 91.8L65.7645 91.7L65.7145 96.9L50.7145 96.7L50.5645 92.3L53.7145 92.1L53.3145 67.35L50.8645 67.25L50.7145 62.4L75.0145 62.15L75.1145 70.75ZM89.177 96L78.277 96.2L78.227 91.05L80.977 91.1L80.777 64.1L77.177 64.15L77.127 60.05L86.127 60.2L86.227 91.25L89.127 91.35L89.177 96ZM113.389 85.1C113.356 86.6667 113.089 88.15 112.589 89.55C112.089 90.9167 111.389 92.1167 110.489 93.15C109.589 94.15 108.506 94.9667 107.239 95.6C105.973 96.2333 104.539 96.5833 102.939 96.65C101.406 96.7167 99.9561 96.5333 98.5895 96.1C97.2561 95.6667 96.0728 95.0167 95.0395 94.15C94.0061 93.2833 93.1561 92.2167 92.4895 90.95C91.8228 89.6833 91.4061 88.2667 91.2395 86.7C91.0728 84.8667 91.2395 83.2 91.7395 81.7C92.2728 80.1667 93.0395 78.85 94.0395 77.75C95.0728 76.6167 96.2895 75.7333 97.6895 75.1C99.1228 74.4333 100.656 74.0667 102.289 74C103.823 73.9333 105.273 74.2 106.639 74.8C108.006 75.4 109.189 76.2167 110.189 77.25C111.189 78.2833 111.973 79.4833 112.539 80.85C113.139 82.2167 113.423 83.6333 113.389 85.1ZM108.239 85.35C108.239 84.55 108.073 83.7667 107.739 83C107.406 82.2 106.956 81.5 106.389 80.9C105.856 80.2667 105.223 79.7667 104.489 79.4C103.789 79.0333 103.039 78.85 102.239 78.85C101.439 78.8833 100.673 79.1167 99.9395 79.55C99.2395 79.95 98.6061 80.5 98.0395 81.2C97.5061 81.8667 97.0895 82.65 96.7895 83.55C96.5228 84.4167 96.4228 85.3167 96.4895 86.25C96.6228 88.0167 97.2728 89.3833 98.4395 90.35C99.6061 91.3167 100.989 91.8 102.589 91.8C103.389 91.8 104.123 91.6167 104.789 91.25C105.489 90.8833 106.089 90.4 106.589 89.8C107.089 89.2 107.489 88.5167 107.789 87.75C108.089 86.95 108.239 86.15 108.239 85.35ZM147.558 71.55L141.158 96.8L134.158 97.05L130.908 85.85L127.558 96.35L117.658 96.25L117.358 92.25L121.408 92.15L117.758 78.4L115.408 78.45L115.458 74.15L122.158 73.95L125.658 87.25L128.958 77L133.958 77.15L137.308 90.45L141.008 75.8L135.508 75.7L135.558 71.45L147.558 71.55ZM169.839 87.25L155.089 87.7C155.089 88.3 155.239 88.85 155.539 89.35C155.872 89.85 156.272 90.3 156.739 90.7C157.239 91.0667 157.789 91.3667 158.389 91.6C158.989 91.8 159.589 91.9167 160.189 91.95C161.056 91.9833 161.922 91.85 162.789 91.55C163.689 91.25 164.406 90.8167 164.939 90.25L167.789 93.9C166.756 95.0333 165.606 95.8 164.339 96.2C163.072 96.6333 161.706 96.8333 160.239 96.8C158.806 96.7667 157.422 96.4833 156.089 95.95C154.756 95.4167 153.589 94.65 152.589 93.65C151.589 92.6167 150.806 91.35 150.239 89.85C149.706 88.35 149.489 86.6 149.589 84.6C149.689 82.8 150.089 81.25 150.789 79.95C151.489 78.6167 152.339 77.5333 153.339 76.7C154.372 75.8667 155.489 75.25 156.689 74.85C157.889 74.45 159.039 74.25 160.139 74.25C161.039 74.25 162.072 74.4333 163.239 74.8C164.439 75.1333 165.539 75.7833 166.539 76.75C167.572 77.6833 168.422 79 169.089 80.7C169.756 82.4 170.006 84.5833 169.839 87.25ZM164.589 82.9C164.422 81.6333 163.872 80.6667 162.939 80C162.039 79.3333 161.089 79.0167 160.089 79.05C159.056 79.0833 158.039 79.4667 157.039 80.2C156.072 80.9333 155.506 81.95 155.339 83.25L164.589 82.9ZM191.352 79.7C191.586 81.1333 191.436 82.3 190.902 83.2C190.369 84.0667 189.819 84.7333 189.252 85.2L185.552 82.35C186.319 81.7833 186.569 81.15 186.302 80.45C186.036 79.7167 185.402 79.2833 184.402 79.15C184.002 79.0833 183.569 79.1 183.102 79.2C182.669 79.3 182.252 79.5 181.852 79.8C181.452 80.0667 181.119 80.4167 180.852 80.85C180.586 81.2833 180.452 81.8 180.452 82.4L180.352 92.2L184.852 92.3L184.952 96.05L172.252 96.2L172.202 91.85H175.302L175.202 78L171.952 77.85L171.902 73.7H180.152L180.102 76.25C180.669 75.5833 181.369 75.1333 182.202 74.9C183.069 74.6333 183.936 74.5 184.802 74.5C185.236 74.5 185.786 74.5833 186.452 74.75C187.152 74.9167 187.836 75.2 188.502 75.6C189.169 76 189.769 76.5333 190.302 77.2C190.836 77.8667 191.186 78.7 191.352 79.7ZM53.3709 136.4C53.3376 139.033 52.4542 141.167 50.7209 142.8C48.9876 144.4 46.3876 145.217 42.9209 145.25C42.9209 145.25 41.6376 145.283 39.0709 145.35C36.5042 145.45 33.0709 145.45 28.7709 145.35L28.4209 140.35L31.7209 140.3L31.1709 116.15L28.8709 116.3L28.6209 111.65C34.1209 111.05 38.5542 110.983 41.9209 111.45C45.3876 111.883 47.8209 112.783 49.2209 114.15C50.6209 115.517 51.4209 117.267 51.6209 119.4C51.7542 121.4 51.4042 123.15 50.5709 124.65C49.7709 126.15 48.6376 127.183 47.1709 127.75C48.0709 127.917 48.9042 128.283 49.6709 128.85C50.4376 129.383 51.0876 130.05 51.6209 130.85C52.1876 131.65 52.6209 132.533 52.9209 133.5C53.2209 134.433 53.3709 135.4 53.3709 136.4ZM45.6209 121C45.6542 119.867 45.3876 118.967 44.8209 118.3C44.2542 117.633 43.5376 117.15 42.6709 116.85C41.8042 116.517 40.8542 116.317 39.8209 116.25C38.8209 116.183 37.8876 116.183 37.0209 116.25L37.1209 126.25C38.1542 126.25 39.1709 126.183 40.1709 126.05C41.1709 125.917 42.0709 125.667 42.8709 125.3C43.6709 124.933 44.3209 124.417 44.8209 123.75C45.3542 123.05 45.6209 122.133 45.6209 121ZM47.0709 135.35C47.1042 134.117 46.7876 133.15 46.1209 132.45C45.4876 131.75 44.6709 131.233 43.6709 130.9C42.6709 130.567 41.5876 130.4 40.4209 130.4C39.2542 130.367 38.1709 130.417 37.1709 130.55L37.2209 140.2C38.5209 140.2 39.7542 140.2 40.9209 140.2C42.1209 140.2 43.1709 140.067 44.0709 139.8C44.9709 139.533 45.6876 139.067 46.2209 138.4C46.7876 137.733 47.0709 136.717 47.0709 135.35ZM74.824 128.7C75.0574 130.133 74.9074 131.3 74.374 132.2C73.8407 133.067 73.2907 133.733 72.724 134.2L69.024 131.35C69.7907 130.783 70.0407 130.15 69.774 129.45C69.5074 128.717 68.874 128.283 67.874 128.15C67.474 128.083 67.0407 128.1 66.574 128.2C66.1407 128.3 65.724 128.5 65.324 128.8C64.924 129.067 64.5907 129.417 64.324 129.85C64.0574 130.283 63.924 130.8 63.924 131.4L63.824 141.2L68.324 141.3L68.424 145.05L55.724 145.2L55.674 140.85H58.774L58.674 127L55.424 126.85L55.374 122.7H63.624L63.574 125.25C64.1407 124.583 64.8407 124.133 65.674 123.9C66.5407 123.633 67.4074 123.5 68.274 123.5C68.7074 123.5 69.2574 123.583 69.924 123.75C70.624 123.917 71.3074 124.2 71.974 124.6C72.6407 125 73.2407 125.533 73.774 126.2C74.3074 126.867 74.6574 127.7 74.824 128.7ZM97.2072 136.25L82.4572 136.7C82.4572 137.3 82.6072 137.85 82.9072 138.35C83.2406 138.85 83.6406 139.3 84.1072 139.7C84.6072 140.067 85.1572 140.367 85.7572 140.6C86.3572 140.8 86.9572 140.917 87.5572 140.95C88.4239 140.983 89.2906 140.85 90.1572 140.55C91.0572 140.25 91.7739 139.817 92.3072 139.25L95.1572 142.9C94.1239 144.033 92.9739 144.8 91.7072 145.2C90.4406 145.633 89.0739 145.833 87.6072 145.8C86.1739 145.767 84.7906 145.483 83.4572 144.95C82.1239 144.417 80.9572 143.65 79.9572 142.65C78.9572 141.617 78.1739 140.35 77.6072 138.85C77.0739 137.35 76.8572 135.6 76.9572 133.6C77.0572 131.8 77.4572 130.25 78.1572 128.95C78.8572 127.617 79.7072 126.533 80.7072 125.7C81.7406 124.867 82.8572 124.25 84.0572 123.85C85.2572 123.45 86.4072 123.25 87.5072 123.25C88.4072 123.25 89.4406 123.433 90.6072 123.8C91.8072 124.133 92.9072 124.783 93.9072 125.75C94.9406 126.683 95.7906 128 96.4572 129.7C97.1239 131.4 97.3739 133.583 97.2072 136.25ZM91.9572 131.9C91.7906 130.633 91.2406 129.667 90.3072 129C89.4072 128.333 88.4572 128.017 87.4572 128.05C86.4239 128.083 85.4072 128.467 84.4072 129.2C83.4406 129.933 82.8739 130.95 82.7072 132.25L91.9572 131.9ZM119.571 136.25L104.821 136.7C104.821 137.3 104.971 137.85 105.271 138.35C105.604 138.85 106.004 139.3 106.471 139.7C106.971 140.067 107.521 140.367 108.121 140.6C108.721 140.8 109.321 140.917 109.921 140.95C110.787 140.983 111.654 140.85 112.521 140.55C113.421 140.25 114.137 139.817 114.671 139.25L117.521 142.9C116.487 144.033 115.337 144.8 114.071 145.2C112.804 145.633 111.437 145.833 109.971 145.8C108.537 145.767 107.154 145.483 105.821 144.95C104.487 144.417 103.321 143.65 102.321 142.65C101.321 141.617 100.537 140.35 99.9705 138.85C99.4372 137.35 99.2205 135.6 99.3205 133.6C99.4205 131.8 99.8205 130.25 100.521 128.95C101.221 127.617 102.071 126.533 103.071 125.7C104.104 124.867 105.221 124.25 106.421 123.85C107.621 123.45 108.771 123.25 109.871 123.25C110.771 123.25 111.804 123.433 112.971 123.8C114.171 124.133 115.271 124.783 116.271 125.75C117.304 126.683 118.154 128 118.821 129.7C119.487 131.4 119.737 133.583 119.571 136.25ZM114.321 131.9C114.154 130.633 113.604 129.667 112.671 129C111.771 128.333 110.821 128.017 109.821 128.05C108.787 128.083 107.771 128.467 106.771 129.2C105.804 129.933 105.237 130.95 105.071 132.25L114.321 131.9ZM146.584 110.25V114.95L143.534 115.15L143.184 141.85L145.684 141.75V146.5L137.684 146.7L137.734 143.35C137.167 143.95 136.367 144.417 135.334 144.75C134.3 145.05 133.3 145.217 132.334 145.25C131 145.283 129.7 145.067 128.434 144.6C127.167 144.133 126.034 143.467 125.034 142.6C124.034 141.7 123.217 140.617 122.584 139.35C121.984 138.083 121.667 136.65 121.634 135.05C121.6 133.617 121.817 132.2 122.284 130.8C122.784 129.4 123.5 128.167 124.434 127.1C125.367 126 126.517 125.117 127.884 124.45C129.284 123.783 130.867 123.467 132.634 123.5C133.534 123.5 134.45 123.65 135.384 123.95C136.317 124.25 137.067 124.65 137.634 125.15V110.1L146.584 110.25ZM137.484 130.7C136.85 129.967 136.067 129.383 135.134 128.95C134.2 128.517 133.367 128.333 132.634 128.4C131.734 128.467 130.917 128.7 130.184 129.1C129.484 129.467 128.9 129.95 128.434 130.55C127.967 131.117 127.6 131.733 127.334 132.4C127.1 133.067 126.984 133.733 126.984 134.4C126.95 136.133 127.45 137.617 128.484 138.85C129.517 140.05 130.867 140.667 132.534 140.7C133.5 140.733 134.4 140.5 135.234 140C136.1 139.467 136.834 138.733 137.434 137.8L137.484 130.7ZM157.787 117.85C157.854 118.883 157.537 119.767 156.837 120.5C156.17 121.2 155.32 121.55 154.287 121.55C153.254 121.55 152.32 121.267 151.487 120.7C150.687 120.133 150.287 119.267 150.287 118.1C150.287 117.067 150.604 116.167 151.237 115.4C151.904 114.6 152.754 114.2 153.787 114.2C154.82 114.2 155.737 114.517 156.537 115.15C157.337 115.783 157.754 116.683 157.787 117.85ZM160.937 144.95H149.487L149.337 140.45L152.787 140.3L152.937 128.7L148.637 128.5L148.587 123.8L158.037 123.55L158.087 140.1L160.937 140.2V144.95ZM187.192 145.45L179.242 145.4C179.342 140.167 179.392 136.4 179.392 134.1C179.392 131.767 179.392 130.6 179.392 130.6C179.392 129.8 179.109 129.133 178.542 128.6C177.976 128.067 177.276 127.75 176.442 127.65C175.642 127.55 174.809 127.7 173.942 128.1C173.076 128.467 172.376 129.15 171.842 130.15L171.592 144.9L163.442 144.95V141.35L166.242 141.25L166.342 125L163.042 125.15L162.942 121.5L171.742 121.35V124.7C172.509 123.833 173.409 123.25 174.442 122.95C175.509 122.65 176.459 122.483 177.292 122.45C178.526 122.383 179.609 122.567 180.542 123C181.476 123.433 182.259 124 182.892 124.7C183.526 125.4 184.009 126.183 184.342 127.05C184.676 127.883 184.842 128.683 184.842 129.45C184.842 129.45 184.842 130.467 184.842 132.5C184.842 134.5 184.826 137.267 184.792 140.8L187.192 140.65V145.45ZM213.562 127.35L211.162 127.6L210.562 149.9C210.529 151.567 210.245 153 209.712 154.2C209.179 155.4 208.495 156.367 207.662 157.1C206.829 157.867 205.862 158.433 204.762 158.8C203.695 159.167 202.562 159.367 201.362 159.4C200.462 159.433 199.562 159.3 198.662 159C197.762 158.7 196.929 158.267 196.162 157.7C195.429 157.167 194.812 156.483 194.312 155.65C193.845 154.85 193.595 153.933 193.562 152.9C193.495 151.233 193.912 149.733 194.812 148.4C195.712 147.067 197.062 146.367 198.862 146.3C200.029 146.233 201.062 146.55 201.962 147.25C202.862 147.95 203.512 148.917 203.912 150.15L200.262 151.95C199.862 151.483 199.512 151.35 199.212 151.55C198.912 151.783 198.762 152.117 198.762 152.55C198.762 152.883 198.945 153.233 199.312 153.6C199.679 154 200.462 154.167 201.662 154.1C202.529 154.033 203.295 153.6 203.962 152.8C204.662 152.033 205.029 151.017 205.062 149.75L205.162 143.25C204.329 143.883 203.495 144.317 202.662 144.55C201.829 144.783 200.645 144.883 199.112 144.85C197.745 144.817 196.445 144.5 195.212 143.9C194.012 143.3 192.962 142.517 192.062 141.55C191.162 140.583 190.445 139.45 189.912 138.15C189.412 136.85 189.179 135.467 189.212 134C189.245 132.533 189.529 131.167 190.062 129.9C190.595 128.633 191.295 127.55 192.162 126.65C193.062 125.75 194.112 125.05 195.312 124.55C196.512 124.017 197.795 123.767 199.162 123.8C201.562 123.867 203.579 124.467 205.212 125.6L205.412 122.55L213.562 122.7V127.35ZM204.912 131C204.445 130.333 203.795 129.767 202.962 129.3C202.162 128.833 201.195 128.617 200.062 128.65C198.295 128.717 196.995 129.333 196.162 130.5C195.329 131.633 194.895 132.983 194.862 134.55C194.829 135.983 195.345 137.233 196.412 138.3C197.512 139.333 198.862 139.867 200.462 139.9C201.295 139.9 202.112 139.717 202.912 139.35C203.712 138.983 204.345 138.4 204.812 137.6L204.912 131Z" fill="#927B3E"/>
<path d="M74.1145 67.75L70.3145 67.95L70.0145 64L58.1145 64.2L58.3645 74.9L64.0145 74.7L63.9645 68.85H68.4145L68.8145 81.8L63.9645 82L63.7645 79.1L58.4145 79.3L58.3645 88.8L64.7645 88.7L64.7145 93.9L49.7145 93.7L49.5645 89.3L52.7145 89.1L52.3145 64.35L49.8645 64.25L49.7145 59.4L74.0145 59.15L74.1145 67.75ZM88.177 93L77.277 93.2L77.227 88.05L79.977 88.1L79.777 61.1L76.177 61.15L76.127 57.05L85.127 57.2L85.227 88.25L88.127 88.35L88.177 93ZM112.389 82.1C112.356 83.6667 112.089 85.15 111.589 86.55C111.089 87.9167 110.389 89.1167 109.489 90.15C108.589 91.15 107.506 91.9667 106.239 92.6C104.973 93.2333 103.539 93.5833 101.939 93.65C100.406 93.7167 98.9561 93.5333 97.5895 93.1C96.2561 92.6667 95.0728 92.0167 94.0395 91.15C93.0061 90.2833 92.1561 89.2167 91.4895 87.95C90.8228 86.6833 90.4061 85.2667 90.2395 83.7C90.0728 81.8667 90.2395 80.2 90.7395 78.7C91.2728 77.1667 92.0395 75.85 93.0395 74.75C94.0728 73.6167 95.2895 72.7333 96.6895 72.1C98.1228 71.4333 99.6561 71.0667 101.289 71C102.823 70.9333 104.273 71.2 105.639 71.8C107.006 72.4 108.189 73.2167 109.189 74.25C110.189 75.2833 110.973 76.4833 111.539 77.85C112.139 79.2167 112.423 80.6333 112.389 82.1ZM107.239 82.35C107.239 81.55 107.073 80.7667 106.739 80C106.406 79.2 105.956 78.5 105.389 77.9C104.856 77.2667 104.223 76.7667 103.489 76.4C102.789 76.0333 102.039 75.85 101.239 75.85C100.439 75.8833 99.6728 76.1167 98.9395 76.55C98.2395 76.95 97.6061 77.5 97.0395 78.2C96.5061 78.8667 96.0895 79.65 95.7895 80.55C95.5228 81.4167 95.4228 82.3167 95.4895 83.25C95.6228 85.0167 96.2728 86.3833 97.4395 87.35C98.6061 88.3167 99.9895 88.8 101.589 88.8C102.389 88.8 103.123 88.6167 103.789 88.25C104.489 87.8833 105.089 87.4 105.589 86.8C106.089 86.2 106.489 85.5167 106.789 84.75C107.089 83.95 107.239 83.15 107.239 82.35ZM146.558 68.55L140.158 93.8L133.158 94.05L129.908 82.85L126.558 93.35L116.658 93.25L116.358 89.25L120.408 89.15L116.758 75.4L114.408 75.45L114.458 71.15L121.158 70.95L124.658 84.25L127.958 74L132.958 74.15L136.308 87.45L140.008 72.8L134.508 72.7L134.558 68.45L146.558 68.55ZM168.839 84.25L154.089 84.7C154.089 85.3 154.239 85.85 154.539 86.35C154.872 86.85 155.272 87.3 155.739 87.7C156.239 88.0667 156.789 88.3667 157.389 88.6C157.989 88.8 158.589 88.9167 159.189 88.95C160.056 88.9833 160.922 88.85 161.789 88.55C162.689 88.25 163.406 87.8167 163.939 87.25L166.789 90.9C165.756 92.0333 164.606 92.8 163.339 93.2C162.072 93.6333 160.706 93.8333 159.239 93.8C157.806 93.7667 156.422 93.4833 155.089 92.95C153.756 92.4167 152.589 91.65 151.589 90.65C150.589 89.6167 149.806 88.35 149.239 86.85C148.706 85.35 148.489 83.6 148.589 81.6C148.689 79.8 149.089 78.25 149.789 76.95C150.489 75.6167 151.339 74.5333 152.339 73.7C153.372 72.8667 154.489 72.25 155.689 71.85C156.889 71.45 158.039 71.25 159.139 71.25C160.039 71.25 161.072 71.4333 162.239 71.8C163.439 72.1333 164.539 72.7833 165.539 73.75C166.572 74.6833 167.422 76 168.089 77.7C168.756 79.4 169.006 81.5833 168.839 84.25ZM163.589 79.9C163.422 78.6333 162.872 77.6667 161.939 77C161.039 76.3333 160.089 76.0167 159.089 76.05C158.056 76.0833 157.039 76.4667 156.039 77.2C155.072 77.9333 154.506 78.95 154.339 80.25L163.589 79.9ZM190.352 76.7C190.586 78.1333 190.436 79.3 189.902 80.2C189.369 81.0667 188.819 81.7333 188.252 82.2L184.552 79.35C185.319 78.7833 185.569 78.15 185.302 77.45C185.036 76.7167 184.402 76.2833 183.402 76.15C183.002 76.0833 182.569 76.1 182.102 76.2C181.669 76.3 181.252 76.5 180.852 76.8C180.452 77.0667 180.119 77.4167 179.852 77.85C179.586 78.2833 179.452 78.8 179.452 79.4L179.352 89.2L183.852 89.3L183.952 93.05L171.252 93.2L171.202 88.85H174.302L174.202 75L170.952 74.85L170.902 70.7H179.152L179.102 73.25C179.669 72.5833 180.369 72.1333 181.202 71.9C182.069 71.6333 182.936 71.5 183.802 71.5C184.236 71.5 184.786 71.5833 185.452 71.75C186.152 71.9167 186.836 72.2 187.502 72.6C188.169 73 188.769 73.5333 189.302 74.2C189.836 74.8667 190.186 75.7 190.352 76.7ZM52.3709 133.4C52.3376 136.033 51.4542 138.167 49.7209 139.8C47.9876 141.4 45.3876 142.217 41.9209 142.25C41.9209 142.25 40.6376 142.283 38.0709 142.35C35.5042 142.45 32.0709 142.45 27.7709 142.35L27.4209 137.35L30.7209 137.3L30.1709 113.15L27.8709 113.3L27.6209 108.65C33.1209 108.05 37.5542 107.983 40.9209 108.45C44.3876 108.883 46.8209 109.783 48.2209 111.15C49.6209 112.517 50.4209 114.267 50.6209 116.4C50.7542 118.4 50.4042 120.15 49.5709 121.65C48.7709 123.15 47.6376 124.183 46.1709 124.75C47.0709 124.917 47.9042 125.283 48.6709 125.85C49.4376 126.383 50.0876 127.05 50.6209 127.85C51.1876 128.65 51.6209 129.533 51.9209 130.5C52.2209 131.433 52.3709 132.4 52.3709 133.4ZM44.6209 118C44.6542 116.867 44.3876 115.967 43.8209 115.3C43.2542 114.633 42.5376 114.15 41.6709 113.85C40.8042 113.517 39.8542 113.317 38.8209 113.25C37.8209 113.183 36.8876 113.183 36.0209 113.25L36.1209 123.25C37.1542 123.25 38.1709 123.183 39.1709 123.05C40.1709 122.917 41.0709 122.667 41.8709 122.3C42.6709 121.933 43.3209 121.417 43.8209 120.75C44.3542 120.05 44.6209 119.133 44.6209 118ZM46.0709 132.35C46.1042 131.117 45.7876 130.15 45.1209 129.45C44.4876 128.75 43.6709 128.233 42.6709 127.9C41.6709 127.567 40.5876 127.4 39.4209 127.4C38.2542 127.367 37.1709 127.417 36.1709 127.55L36.2209 137.2C37.5209 137.2 38.7542 137.2 39.9209 137.2C41.1209 137.2 42.1709 137.067 43.0709 136.8C43.9709 136.533 44.6876 136.067 45.2209 135.4C45.7876 134.733 46.0709 133.717 46.0709 132.35ZM73.824 125.7C74.0574 127.133 73.9074 128.3 73.374 129.2C72.8407 130.067 72.2907 130.733 71.724 131.2L68.024 128.35C68.7907 127.783 69.0407 127.15 68.774 126.45C68.5074 125.717 67.874 125.283 66.874 125.15C66.474 125.083 66.0407 125.1 65.574 125.2C65.1407 125.3 64.724 125.5 64.324 125.8C63.924 126.067 63.5907 126.417 63.324 126.85C63.0574 127.283 62.924 127.8 62.924 128.4L62.824 138.2L67.324 138.3L67.424 142.05L54.724 142.2L54.674 137.85H57.774L57.674 124L54.424 123.85L54.374 119.7H62.624L62.574 122.25C63.1407 121.583 63.8407 121.133 64.674 120.9C65.5407 120.633 66.4074 120.5 67.274 120.5C67.7074 120.5 68.2574 120.583 68.924 120.75C69.624 120.917 70.3074 121.2 70.974 121.6C71.6407 122 72.2407 122.533 72.774 123.2C73.3074 123.867 73.6574 124.7 73.824 125.7ZM96.2072 133.25L81.4572 133.7C81.4572 134.3 81.6072 134.85 81.9072 135.35C82.2406 135.85 82.6406 136.3 83.1072 136.7C83.6072 137.067 84.1572 137.367 84.7572 137.6C85.3572 137.8 85.9572 137.917 86.5572 137.95C87.4239 137.983 88.2906 137.85 89.1572 137.55C90.0572 137.25 90.7739 136.817 91.3072 136.25L94.1572 139.9C93.1239 141.033 91.9739 141.8 90.7072 142.2C89.4406 142.633 88.0739 142.833 86.6072 142.8C85.1739 142.767 83.7906 142.483 82.4572 141.95C81.1239 141.417 79.9572 140.65 78.9572 139.65C77.9572 138.617 77.1739 137.35 76.6072 135.85C76.0739 134.35 75.8572 132.6 75.9572 130.6C76.0572 128.8 76.4572 127.25 77.1572 125.95C77.8572 124.617 78.7072 123.533 79.7072 122.7C80.7406 121.867 81.8572 121.25 83.0572 120.85C84.2572 120.45 85.4072 120.25 86.5072 120.25C87.4072 120.25 88.4406 120.433 89.6072 120.8C90.8072 121.133 91.9072 121.783 92.9072 122.75C93.9406 123.683 94.7906 125 95.4572 126.7C96.1239 128.4 96.3739 130.583 96.2072 133.25ZM90.9572 128.9C90.7906 127.633 90.2406 126.667 89.3072 126C88.4072 125.333 87.4572 125.017 86.4572 125.05C85.4239 125.083 84.4072 125.467 83.4072 126.2C82.4406 126.933 81.8739 127.95 81.7072 129.25L90.9572 128.9ZM118.571 133.25L103.821 133.7C103.821 134.3 103.971 134.85 104.271 135.35C104.604 135.85 105.004 136.3 105.471 136.7C105.971 137.067 106.521 137.367 107.121 137.6C107.721 137.8 108.321 137.917 108.921 137.95C109.787 137.983 110.654 137.85 111.521 137.55C112.421 137.25 113.137 136.817 113.671 136.25L116.521 139.9C115.487 141.033 114.337 141.8 113.071 142.2C111.804 142.633 110.437 142.833 108.971 142.8C107.537 142.767 106.154 142.483 104.821 141.95C103.487 141.417 102.321 140.65 101.321 139.65C100.321 138.617 99.5372 137.35 98.9705 135.85C98.4372 134.35 98.2205 132.6 98.3205 130.6C98.4205 128.8 98.8205 127.25 99.5205 125.95C100.221 124.617 101.071 123.533 102.071 122.7C103.104 121.867 104.221 121.25 105.421 120.85C106.621 120.45 107.771 120.25 108.871 120.25C109.771 120.25 110.804 120.433 111.971 120.8C113.171 121.133 114.271 121.783 115.271 122.75C116.304 123.683 117.154 125 117.821 126.7C118.487 128.4 118.737 130.583 118.571 133.25ZM113.321 128.9C113.154 127.633 112.604 126.667 111.671 126C110.771 125.333 109.821 125.017 108.821 125.05C107.787 125.083 106.771 125.467 105.771 126.2C104.804 126.933 104.237 127.95 104.071 129.25L113.321 128.9ZM145.584 107.25V111.95L142.534 112.15L142.184 138.85L144.684 138.75V143.5L136.684 143.7L136.734 140.35C136.167 140.95 135.367 141.417 134.334 141.75C133.3 142.05 132.3 142.217 131.334 142.25C130 142.283 128.7 142.067 127.434 141.6C126.167 141.133 125.034 140.467 124.034 139.6C123.034 138.7 122.217 137.617 121.584 136.35C120.984 135.083 120.667 133.65 120.634 132.05C120.6 130.617 120.817 129.2 121.284 127.8C121.784 126.4 122.5 125.167 123.434 124.1C124.367 123 125.517 122.117 126.884 121.45C128.284 120.783 129.867 120.467 131.634 120.5C132.534 120.5 133.45 120.65 134.384 120.95C135.317 121.25 136.067 121.65 136.634 122.15V107.1L145.584 107.25ZM136.484 127.7C135.85 126.967 135.067 126.383 134.134 125.95C133.2 125.517 132.367 125.333 131.634 125.4C130.734 125.467 129.917 125.7 129.184 126.1C128.484 126.467 127.9 126.95 127.434 127.55C126.967 128.117 126.6 128.733 126.334 129.4C126.1 130.067 125.984 130.733 125.984 131.4C125.95 133.133 126.45 134.617 127.484 135.85C128.517 137.05 129.867 137.667 131.534 137.7C132.5 137.733 133.4 137.5 134.234 137C135.1 136.467 135.834 135.733 136.434 134.8L136.484 127.7ZM156.787 114.85C156.854 115.883 156.537 116.767 155.837 117.5C155.17 118.2 154.32 118.55 153.287 118.55C152.254 118.55 151.32 118.267 150.487 117.7C149.687 117.133 149.287 116.267 149.287 115.1C149.287 114.067 149.604 113.167 150.237 112.4C150.904 111.6 151.754 111.2 152.787 111.2C153.82 111.2 154.737 111.517 155.537 112.15C156.337 112.783 156.754 113.683 156.787 114.85ZM159.937 141.95H148.487L148.337 137.45L151.787 137.3L151.937 125.7L147.637 125.5L147.587 120.8L157.037 120.55L157.087 137.1L159.937 137.2V141.95ZM186.192 142.45L178.242 142.4C178.342 137.167 178.392 133.4 178.392 131.1C178.392 128.767 178.392 127.6 178.392 127.6C178.392 126.8 178.109 126.133 177.542 125.6C176.976 125.067 176.276 124.75 175.442 124.65C174.642 124.55 173.809 124.7 172.942 125.1C172.076 125.467 171.376 126.15 170.842 127.15L170.592 141.9L162.442 141.95V138.35L165.242 138.25L165.342 122L162.042 122.15L161.942 118.5L170.742 118.35V121.7C171.509 120.833 172.409 120.25 173.442 119.95C174.509 119.65 175.459 119.483 176.292 119.45C177.526 119.383 178.609 119.567 179.542 120C180.476 120.433 181.259 121 181.892 121.7C182.526 122.4 183.009 123.183 183.342 124.05C183.676 124.883 183.842 125.683 183.842 126.45C183.842 126.45 183.842 127.467 183.842 129.5C183.842 131.5 183.826 134.267 183.792 137.8L186.192 137.65V142.45ZM212.562 124.35L210.162 124.6L209.562 146.9C209.529 148.567 209.245 150 208.712 151.2C208.179 152.4 207.495 153.367 206.662 154.1C205.829 154.867 204.862 155.433 203.762 155.8C202.695 156.167 201.562 156.367 200.362 156.4C199.462 156.433 198.562 156.3 197.662 156C196.762 155.7 195.929 155.267 195.162 154.7C194.429 154.167 193.812 153.483 193.312 152.65C192.845 151.85 192.595 150.933 192.562 149.9C192.495 148.233 192.912 146.733 193.812 145.4C194.712 144.067 196.062 143.367 197.862 143.3C199.029 143.233 200.062 143.55 200.962 144.25C201.862 144.95 202.512 145.917 202.912 147.15L199.262 148.95C198.862 148.483 198.512 148.35 198.212 148.55C197.912 148.783 197.762 149.117 197.762 149.55C197.762 149.883 197.945 150.233 198.312 150.6C198.679 151 199.462 151.167 200.662 151.1C201.529 151.033 202.295 150.6 202.962 149.8C203.662 149.033 204.029 148.017 204.062 146.75L204.162 140.25C203.329 140.883 202.495 141.317 201.662 141.55C200.829 141.783 199.645 141.883 198.112 141.85C196.745 141.817 195.445 141.5 194.212 140.9C193.012 140.3 191.962 139.517 191.062 138.55C190.162 137.583 189.445 136.45 188.912 135.15C188.412 133.85 188.179 132.467 188.212 131C188.245 129.533 188.529 128.167 189.062 126.9C189.595 125.633 190.295 124.55 191.162 123.65C192.062 122.75 193.112 122.05 194.312 121.55C195.512 121.017 196.795 120.767 198.162 120.8C200.562 120.867 202.579 121.467 204.212 122.6L204.412 119.55L212.562 119.7V124.35ZM203.912 128C203.445 127.333 202.795 126.767 201.962 126.3C201.162 125.833 200.195 125.617 199.062 125.65C197.295 125.717 195.995 126.333 195.162 127.5C194.329 128.633 193.895 129.983 193.862 131.55C193.829 132.983 194.345 134.233 195.412 135.3C196.512 136.333 197.862 136.867 199.462 136.9C200.295 136.9 201.112 136.717 201.912 136.35C202.712 135.983 203.345 135.4 203.812 134.6L203.912 128Z" fill="#F9D267"/>
<path d="M133 35L130 30V20L136.5 21L138 20L139.5 21M133 35V28L136 21.5L139.5 21M133 35H137M141 35L144.5 30V20L139.5 21M141 35V28L139.5 21M141 35H138M137 35V52.5H138V44.5M137 35H138M138 35V43.75M138 43.75L143 39L151 35L147.5 40L138 44.5M138 43.75V44.5M136 52.5L130 49.5L127 41.5L131.5 46.5L136 52.5Z" stroke="#645743"/>
<path d="M132.5 34.5L129.5 29.5V19.5L136 20.5L137.5 19.5L139 20.5M132.5 34.5V27.5L135.5 21L139 20.5M132.5 34.5H136.5M140.5 34.5L144 29.5V19.5L139 20.5M140.5 34.5V27.5L139 20.5M140.5 34.5H137.5M136.5 34.5V52H137.5V44M136.5 34.5H137.5M137.5 34.5V43.25M137.5 43.25L142.5 38.5L150.5 34.5L147 39.5L137.5 44M137.5 43.25V44M135.5 52L129.5 49L126.5 41L131 46L135.5 52Z" stroke="#F4D7A7"/>
</svg>
